<svg width="200" height="17" viewBox="0 0 200 17" fill="none" xmlns="http://www.w3.org/2000/svg">
<path fill-rule="evenodd" clip-rule="evenodd" d="M123.858 7.9238C123.738 12.2811 125.784 15.5475 129.514 16.6364C130.847 17.0184 132.246 17.1007 133.614 16.8772C137.574 16.2721 140.104 13.1271 140.345 8.77177C140.63 4.8324 138.112 1.2378 134.327 0.180639C132.933 -0.0602131 131.509 -0.0602131 130.116 0.180639C126.471 0.948888 123.861 4.17953 123.858 7.9238ZM132.284 2.71857C135.374 2.82026 137.797 5.42164 137.696 8.52892V9.00665C137.642 11.0238 136.518 12.8572 134.75 13.8124C132.982 14.7675 130.841 14.6982 129.138 13.6307C127.435 12.5632 126.43 10.6608 126.505 8.64438V8.16068C126.606 5.05339 129.193 2.61688 132.284 2.71857Z" fill="white"/>
<path d="M2.46901 5.46861V15.8239H0V0C0.470196 0.350282 7.40898 6.864 10.5862 9.75048L11.2905 10.4491V0.233521H13.7615V16.0556C13.2913 15.7129 6.57888 9.30832 3.41134 6.28402C3.12036 5.98713 2.80519 5.71441 2.46901 5.46861Z" fill="white"/>
<path fill-rule="evenodd" clip-rule="evenodd" d="M45.7666 16.0556V11.1585C47.5308 11.1585 49.295 11.1585 50.8063 11.0386C54.3348 10.7989 56.6027 8.88876 56.8557 6.02165C57.1065 2.92069 55.4688 0.527177 52.1933 0.169525C49.1686 0.0496527 46.1439 -0.0702196 43.1193 0.0496527V16.0556H45.7666ZM45.8889 8.76889V2.43727C47.6118 2.35632 49.3385 2.39639 51.0551 2.55715H51.4324C53.0662 2.72615 54.2492 4.1144 54.0798 5.664V5.97449C54.057 7.53723 52.7038 8.78747 51.0551 8.76889C49.8837 8.84848 48.7681 8.82238 47.6342 8.79585C47.0603 8.78243 46.4818 8.76889 45.8889 8.76889Z" fill="white"/>
<path d="M150.177 5.46861V15.8239H147.706V0C148.179 0.350282 155.469 7.21428 158.881 10.4721V0.233521H161.468V16.0556C160.998 15.7072 154.293 9.30832 151.236 6.39887L150.177 5.46861Z" fill="white"/>
<path d="M191.793 16.0556V2.39503H186.239V0H200V2.27675H194.583V16.0556H191.793Z" fill="white"/>
<path d="M177.064 16.0556V0H179.817V15.9412H177.064V16.0556Z" fill="white"/>
<path d="M116.514 0V2.27675H107.239V6.94854H115.069V9.22529H107.239V13.6586H116.514V16.0556H104.587V0H116.514Z" fill="white"/>
<path d="M87.1559 0H89.6414V13.7565H98.1651V16.0556H87.1559V0Z" fill="white"/>
<path fill-rule="evenodd" clip-rule="evenodd" d="M62.3901 7.92297C62.2694 12.2797 64.4369 15.5457 68.0455 16.6344C69.4186 17.0193 70.8581 17.1015 72.2657 16.8752C76.1079 16.2702 78.6337 13.1355 78.8772 8.77083C79.1619 4.83196 76.6441 1.23782 72.8596 0.180788C71.4657 -0.0602626 70.0411 -0.0602626 68.6472 0.180788C65.003 0.94894 62.3923 4.17917 62.3901 7.92297ZM70.8148 2.72038C73.9037 2.82206 76.3258 5.42223 76.2247 8.52802V9.01166C76.1593 11.0208 75.0328 12.8421 73.2696 13.7897C71.5064 14.7373 69.3744 14.6671 67.6766 13.6056C65.9788 12.5441 64.9732 10.6525 65.0387 8.64346V8.15982C65.1398 5.05403 67.7258 2.61871 70.8148 2.72038Z" fill="white"/>
<path fill-rule="evenodd" clip-rule="evenodd" d="M36.5771 16.7666L36.6972 16.9999L33.7048 16.9768L32.5097 14.3988H24.4911L23.2941 16.9768H20.1835L21.6187 14.1636C22.3928 12.6553 23.2906 10.8919 24.1757 9.15366C26.3025 4.97658 28.3555 0.944336 28.4404 0.944336C28.5604 0.944336 36.2188 15.9452 36.5771 16.7666ZM25.568 11.9617L25.4479 12.195L31.4328 12.1873L28.4404 5.63163L25.568 11.9617Z" fill="white"/>
</svg>
